<?xml version="1.0" encoding="UTF-8"?>
<svg id="Layer_1" data-name="Layer 1" xmlns="http://www.w3.org/2000/svg" viewBox="0 0 40 40">
  <defs>
    <style>
      .cls-1 {
        fill: #439249;
        stroke-width: 0px;
      }
    </style>
  </defs>
  <path class="cls-1" d="m20,20c-2.75,0-5.1-.98-7.06-2.94s-2.94-4.31-2.94-7.06.98-5.1,2.94-7.06,4.31-2.94,7.06-2.94,5.1.98,7.06,2.94,2.94,4.31,2.94,7.06-.98,5.1-2.94,7.06-4.31,2.94-7.06,2.94ZM0,40v-7c0-1.42.36-2.72,1.1-3.9.73-1.19,1.7-2.09,2.9-2.72,2.58-1.29,5.21-2.26,7.88-2.9s5.38-.97,8.12-.97,5.46.32,8.12.97,5.29,1.62,7.88,2.9c1.21.62,2.18,1.53,2.91,2.72.73,1.19,1.09,2.49,1.09,3.9v7H0Z"/>
</svg>