<?xml version="1.0" encoding="UTF-8"?>
<svg id="Layer_1" data-name="Layer 1" xmlns="http://www.w3.org/2000/svg" viewBox="0 0 42 42">
  <defs>
    <style>
      .cls-1 {
        fill: #439249;
        stroke-width: 0px;
      }
    </style>
  </defs>
  <path class="cls-1" d="m4.59,42c-1.22,0-2.39-.48-3.25-1.35-.86-.86-1.35-2.03-1.35-3.25V4.59C0,2.06,2.06,0,4.59,0h22.31c2.54,0,4.59,2.06,4.59,4.59v32.81c0,.22-.02.44-.05.66h5.95c.17,0,.34-.07.46-.19s.19-.29.19-.46v-15.66c0-.11-.03-.21-.08-.31-.05-.1-.12-.18-.21-.24l-2.77-1.85c-.22-.14-.4-.33-.54-.54-.14-.21-.24-.46-.29-.71-.05-.25-.05-.51,0-.77.05-.25.15-.49.29-.71.14-.22.33-.4.54-.54.21-.14.46-.24.71-.29.25-.05.51-.05.77,0,.25.05.49.15.71.29l2.77,1.85c1.28.85,2.04,2.29,2.04,3.82v15.66c0,1.22-.48,2.39-1.35,3.25s-2.03,1.35-3.25,1.35h-9.19c-.17,0-.35-.02-.52-.07-.26.05-.52.07-.8.07h-7.88c-.52,0-1.02-.21-1.39-.58-.37-.37-.58-.87-.58-1.39v-3.28h-2.62v3.28c0,.52-.21,1.02-.58,1.39-.37.37-.87.58-1.39.58h-7.88Zm-.66-4.59c0,.36.29.66.66.66h5.91v-3.28c0-.52.21-1.02.58-1.39.37-.37.87-.58,1.39-.58h6.56c.52,0,1.02.21,1.39.58.37.37.58.87.58,1.39v3.28h5.91c.17,0,.34-.07.46-.19s.19-.29.19-.46V4.59c0-.17-.07-.34-.19-.46-.12-.12-.29-.19-.46-.19H4.59c-.17,0-.34.07-.46.19-.12.12-.19.29-.19.46v32.81Zm5.91-21.66h1.31c.52,0,1.02.21,1.39.58.37.37.58.87.58,1.39s-.21,1.02-.58,1.39c-.37.37-.87.58-1.39.58h-1.31c-.52,0-1.02-.21-1.39-.58-.37-.37-.58-.87-.58-1.39s.21-1.02.58-1.39c.37-.37.87-.58,1.39-.58Zm-1.97-5.91c0-.52.21-1.02.58-1.39.37-.37.87-.58,1.39-.58h1.31c.52,0,1.02.21,1.39.58.37.37.58.87.58,1.39s-.21,1.02-.58,1.39-.87.58-1.39.58h-1.31c-.52,0-1.02-.21-1.39-.58-.37-.37-.58-.87-.58-1.39Zm10.5,7.88c0-.52.21-1.02.58-1.39.37-.37.87-.58,1.39-.58h1.31c.52,0,1.02.21,1.39.58.37.37.58.87.58,1.39s-.21,1.02-.58,1.39c-.37.37-.87.58-1.39.58h-1.31c-.52,0-1.02-.21-1.39-.58-.37-.37-.58-.87-.58-1.39Zm1.97-9.84h1.31c.52,0,1.02.21,1.39.58.37.37.58.87.58,1.39s-.21,1.02-.58,1.39c-.37.37-.87.58-1.39.58h-1.31c-.52,0-1.02-.21-1.39-.58-.37-.37-.58-.87-.58-1.39s.21-1.02.58-1.39c.37-.37.87-.58,1.39-.58ZM7.88,25.59c0-.52.21-1.02.58-1.39.37-.37.87-.58,1.39-.58h1.31c.52,0,1.02.21,1.39.58.37.37.58.87.58,1.39s-.21,1.02-.58,1.39c-.37.37-.87.58-1.39.58h-1.31c-.52,0-1.02-.21-1.39-.58-.37-.37-.58-.87-.58-1.39Zm12.47-1.97h1.31c.52,0,1.02.21,1.39.58.37.37.58.87.58,1.39s-.21,1.02-.58,1.39c-.37.37-.87.58-1.39.58h-1.31c-.52,0-1.02-.21-1.39-.58-.37-.37-.58-.87-.58-1.39s.21-1.02.58-1.39c.37-.37.87-.58,1.39-.58Z"/>
</svg>